<?xml version="1.0" encoding="utf-8"?><!-- Uploaded to: SVG Repo, www.svgrepo.com, Generator: SVG Repo Mixer Tools -->
<svg width="800px" height="800px" viewBox="0 0 500 500" id="Layer_2" data-name="Layer 2" xmlns="http://www.w3.org/2000/svg"><defs><style>.cls-1{fill:#fced8d;}.cls-1,.cls-2,.cls-3{fill-rule:evenodd;}.cls-2{fill:#2d140a;}.cls-3{fill:#eaa5ab;}</style></defs><title>icon</title><path class="cls-1" d="M103.71,115C200.71.14,462.28,32.43,440.23,279.28c-13.44,150.55-126,185.62-249.94,163.28C39.64,415.41,28.92,207.45,103.71,115Z"/><path class="cls-2" d="M95.43,107.8c29.7-35.16,73.83-57.29,121-64.68,37.13-5.82,76.22-2.5,111.66,10.81,35.67,13.39,67.64,36.87,90.27,71.28,25.06,38.1,38.55,89.46,32.68,155.15q-1.23,13.8-3.5,26.31c-11.07,61.44-40.14,101.78-80.09,125.63-39.56,23.6-89.5,30.7-142.95,25.93-12-1.08-24.18-2.74-36.42-5-28.91-5.21-53-16.67-72.64-32.54-29.81-24.1-49.17-58.21-59.3-95.92-10-37.26-11-78.15-4.1-116.33S73.74,134.63,95.29,108l.14-.17ZM219,60c-43.23,6.78-83.55,26.92-110.53,58.85-19.69,24.42-33.26,57.25-39.64,92.65-6.44,35.74-5.53,74,3.83,108.88,9.23,34.41,26.71,65.38,53.46,87,17.51,14.16,39.06,24.39,64.94,29.06,11.78,2.12,23.44,3.72,34.87,4.74,50,4.47,96.47-2,132.69-23.58,35.83-21.38,62-57.94,72.06-114q2.13-11.85,3.29-24.77c5.5-61.53-6.87-109.24-29.93-144.3-20.5-31.17-49.53-52.47-82-64.64C289.45,57.68,253.36,54.63,219,60Z"/><path class="cls-2" d="M164.85,112.82a10.87,10.87,0,1,1,20.34,7.66c-5.21,13.84-14.83,23.59-25.62,30.29a88,88,0,0,1-42.12,12.55,10.85,10.85,0,1,1-.34-21.7,64.92,64.92,0,0,0,31.05-9.32C155.26,127.89,161.55,121.59,164.85,112.82Z"/><path class="cls-2" d="M305.14,120.48a10.87,10.87,0,0,1,20.34-7.66c3.3,8.77,9.59,15.07,16.69,19.48a65,65,0,0,0,31.06,9.32,10.85,10.85,0,1,1-.34,21.7,88,88,0,0,1-42.13-12.55C320,144.07,310.35,134.32,305.14,120.48Z"/><path class="cls-2" d="M169.41,336.56c0-.05,1.11-15.21,16.45-16.14,8.93-.54,12.33,5.58,15.83,11.89,1.45,2.62,3,5.33,3.75,5.32.95,0,2.62-2.57,4.33-5.19,4.09-6.26,8.3-12.7,18.3-12.46,10.31.24,13.67,7,16.92,13.6,1.15,2.33,2.27,4.59,2.75,4.59v0c1,0,2.55-2.74,4.1-5.45,3.52-6.15,7-12.23,15.88-12.39,9-.16,12.68,6.08,16.29,12.29,3.52,6.05,5.27,7.77,11.72,1.52,2.83-2.74,4.49-6,6.75-8.91,7.41-9.44,15.11-.43,7.8,10.27,0,.07-7.73,16.08-22.37,16.6-9.16.32-12.79-5.94-16.44-12.21-1.48-2.54-2.6-5.1-3.53-5.09-1.09,0-2,2.55-3.51,5.13-3.61,6.31-7.27,12.71-16.69,12.71v0c-9.46,0-12.55-6.24-15.74-12.7-1.34-2.71-2.73-5.51-4.22-5.54-2-.05-3.94,3-5.86,5.93-3.84,5.86-7.57,11.57-16.25,11.72-9.47.16-13.11-6.4-16.63-12.75-1.26-2.26-2.19-4.47-2.33-4.46a3,3,0,0,0-2.83,2.8Z"/><path class="cls-2" d="M81.08,368.73c2.69-9.77,43-71.73,44.18-92.09a146.12,146.12,0,0,1-18.8-18.24c-5.82-6.8-10.76-14.08-12.85-20.47a32.4,32.4,0,0,1-1.5-13.86A27.73,27.73,0,0,1,98,209.92a26.49,26.49,0,0,1,12.47-8.66,28.88,28.88,0,0,1,12.44-1.17c.49,0,1,.13,1.45.21-.28-1.38-.52-2.78-.71-4.19-1.62-11.89,0-24.19,10.77-30.37.6-.34,1.12-.62,1.55-.83,6.88-3.25,12.89-4.47,18.14-4.23a24.76,24.76,0,0,1,15.16,5.87,33.83,33.83,0,0,1,8.6,11.59c.51,1.08,1,2.17,1.4,3.28a46.24,46.24,0,0,1,3.07-3.74,32.31,32.31,0,0,1,10.54-7.85,22.55,22.55,0,0,1,14.48-1.42c4.66,1.07,9.5,3.64,14.46,8.19a45.08,45.08,0,0,1,13.07,22.75c1.83,8.4.73,16.87-4.59,23.21l-.65.77c7.36.73,14.81,4.16,19.35,13.85a31.18,31.18,0,0,1,2.17,21.95A31.88,31.88,0,0,1,237.83,277c-8.87,5.88-20.56,6.93-30.93,7.82-8.05,46.47-27.72,117-42.57,148.78-27-3.18-75.77-36.09-83.3-60.49A7.14,7.14,0,0,1,81.08,368.73Z"/><path class="cls-1" d="M94.23,370.72c10.47,17.8,37.9,44.64,59.85,49.16,18.14-42.75,36-83.47,41.13-141.62-.23-3.91.54-7.36,4.49-7.8,2.51-.28,4.58-.46,6.7-.64,8.9-.76,19-1.63,24.91-5.58a17.7,17.7,0,0,0,7.51-9.86,17.4,17.4,0,0,0-1.34-12.24c-4-8.45-16.5-5.13-21.73-3.74-6.06,1.61-9.87,2.59-12.09-4.41v0c-1.75-5.57-.67-6.34,3.69-9.43,1.41-1,4.94-3.5,13-13.14,2.19-2.61,2.52-6.72,1.57-11.09A30.7,30.7,0,0,0,213,184.82c-3-2.79-5.7-4.29-8-4.83a8.67,8.67,0,0,0-5.53.58,18.44,18.44,0,0,0-5.84,4.49,48.58,48.58,0,0,0-10,18.33,7.41,7.41,0,0,1-14.63-2,48.68,48.68,0,0,0-4.23-19.6,19.82,19.82,0,0,0-4.91-6.81,10.79,10.79,0,0,0-6.62-2.58c-3.07-.14-6.88.71-11.58,2.93l-.55.27c-4.26,2.45-4.65,9.31-3.7,16.26a78.4,78.4,0,0,0,6.07,20.48l.34.71a7.4,7.4,0,0,1-9.13,10.58c-2.7-1.07-4.32-2.91-6.31-5.17s-4.78-5.43-8.1-5.82a14.91,14.91,0,0,0-6.45.57,12.27,12.27,0,0,0-5.79,4,13.58,13.58,0,0,0-2.79,6.93,18.48,18.48,0,0,0,.89,7.9c1.48,4.51,5.48,10.25,10.31,15.89a125.83,125.83,0,0,0,19.68,18.57h0a7.38,7.38,0,0,1,3,5.33C139.67,277.93,117.89,340.76,94.23,370.72Z"/><path class="cls-2" d="M418.21,370.79c-2.69-9.77-43-71.73-44.18-92.09a145.48,145.48,0,0,0,18.8-18.24c5.82-6.8,10.76-14.08,12.85-20.47a32.25,32.25,0,0,0,1.5-13.86A27.73,27.73,0,0,0,401.33,212a26.42,26.42,0,0,0-12.47-8.66,28.88,28.88,0,0,0-12.44-1.18c-.49.06-1,.14-1.45.22.28-1.38.52-2.78.71-4.19,1.62-11.89,0-24.19-10.77-30.37-.6-.35-1.12-.62-1.55-.83-6.88-3.25-12.89-4.48-18.14-4.23a24.76,24.76,0,0,0-15.16,5.87,33.83,33.83,0,0,0-8.6,11.59c-.51,1.07-1,2.17-1.4,3.28a46.24,46.24,0,0,0-3.07-3.74,32.21,32.21,0,0,0-10.54-7.85A22.55,22.55,0,0,0,292,170.47c-4.66,1.07-9.51,3.64-14.46,8.19a45,45,0,0,0-13.07,22.75c-1.83,8.39-.73,16.87,4.59,23.21l.65.77c-7.36.73-14.81,4.16-19.35,13.85a31.18,31.18,0,0,0-2.17,21.95,31.88,31.88,0,0,0,13.3,17.88c8.87,5.88,20.56,6.93,30.93,7.82,8.05,46.47,25.81,111.57,40.67,143.33,27-3.18,77.67-30.65,85.2-55A7.14,7.14,0,0,0,418.21,370.79Z"/><path class="cls-1" d="M404,370.71c-10.47,17.81-38.93,42.59-60.88,47.11-18.14-42.75-34-79.35-39.07-137.5.23-3.91-.54-7.36-4.49-7.8-2.51-.28-4.58-.46-6.7-.64-8.9-.76-19-1.63-24.91-5.58a17.74,17.74,0,0,1-7.51-9.86,17.45,17.45,0,0,1,1.34-12.24c4-8.45,16.5-5.13,21.73-3.74,6.06,1.61,9.87,2.59,12.09-4.41v0c1.75-5.56.67-6.33-3.69-9.42-1.41-1-4.94-3.5-13-13.14-2.19-2.62-2.52-6.72-1.57-11.09a30.7,30.7,0,0,1,8.91-15.49c3-2.79,5.7-4.29,8.05-4.83a8.66,8.66,0,0,1,5.53.58,18.3,18.3,0,0,1,5.84,4.49,48.51,48.51,0,0,1,10,18.33,7.41,7.41,0,0,0,14.63-2,48.68,48.68,0,0,1,4.23-19.6,20,20,0,0,1,4.91-6.82,10.85,10.85,0,0,1,6.62-2.57c3.07-.15,6.88.71,11.59,2.93l.54.27c4.26,2.45,4.65,9.31,3.7,16.26a78,78,0,0,1-6.07,20.48l-.33.71a7.39,7.39,0,0,0,9.13,10.58c2.69-1.07,4.31-2.91,6.3-5.17s4.79-5.43,8.1-5.82a14.91,14.91,0,0,1,6.45.57,12.27,12.27,0,0,1,5.79,4,13.49,13.49,0,0,1,2.79,6.93,18.49,18.49,0,0,1-.89,7.9c-1.48,4.51-5.48,10.25-10.31,15.89a125.83,125.83,0,0,1-19.68,18.57h0a7.38,7.38,0,0,0-3,5.32C359.62,280,380.37,340.76,404,370.71Z"/><path class="cls-3" d="M129,278.06c13.32,2.49,21.53,11.16,23.31,18.31,4.87,19.55-60.3,11.79-64.38,8.76C69.36,291.39,105.6,273.69,129,278.06Z"/><path class="cls-2" d="M106.12,277.18a3.54,3.54,0,1,1,6.76,2.11l-6.67,21.17a3.54,3.54,0,1,1-6.76-2.1Z"/><path class="cls-2" d="M127.8,275.8a3.53,3.53,0,0,1,6.45,2.89l-11,24.46a3.53,3.53,0,1,1-6.45-2.88Z"/><path class="cls-3" d="M387.47,278.06c13.31,2.49,21.53,11.16,23.31,18.31,4.87,19.55-60.3,11.79-64.38,8.76C327.83,291.39,364.07,273.69,387.47,278.06Z"/><path class="cls-2" d="M364.59,277.18a3.54,3.54,0,1,1,6.76,2.11l-6.67,21.17a3.54,3.54,0,1,1-6.76-2.1Z"/><path class="cls-2" d="M386.27,275.8a3.53,3.53,0,0,1,6.45,2.89l-11,24.46a3.54,3.54,0,1,1-6.46-2.88Z"/></svg>